<svg xmlns="http://www.w3.org/2000/svg" xmlns:xlink="http://www.w3.org/1999/xlink" fill="none" version="1.1" width="120" height="99" viewBox="0 0 120 99"><g><path d="M36.416,74L45.888,74L45.888,34.512L59.264,34.512L59.264,26.576L23.104,26.576L23.104,34.512L36.416,34.512L36.416,74ZM73.792,74.896C78.72,74.896,82.112,72.464,85.184,68.816L85.44,68.816L86.144,74L93.824,74L93.824,38.16L84.416,38.16L84.416,62.352C81.984,65.552,80.064,66.832,77.184,66.832C73.664,66.832,72.064,64.912,72.064,59.344L72.064,38.16L62.72,38.16L62.72,60.496C62.72,69.52,66.048,74.896,73.792,74.896Z" fill="#3D3D3D" fill-opacity="1"/></g></svg>